# xmcd
#
# Track frame offsets:
#	150
#	14817
#	26882
#	37262
#	48707
#	61315
#	72375
#	82797
#	99715
#	113952
#	124377
#	133970
#
# Disc length: 1913 seconds
#
# Revision: 2
# Processed by: cddbd v1.5PL3 Copyright (c) Steve Scherf et al.
# Submitted via: MusicManager 7.0.4.0 
#
DISCID=bb07770c
DTITLE=Willie Nelson - Who'll Buy My Memories - Disc 1
DYEAR=1992
DGENRE=country
TTITLE0=Who'll Buy My Memories
TTITLE1=Jimmy's Road
TTITLE2=It Should Be Easier Now
TTITLE3=Will You Remember
TTITLE4=I Still Can't Believe You're Gone
TTITLE5=Yesterday's Wine
TTITLE6=It's Not Supposed To Be That Way
TTITLE7=Country Williw
TTITLE8=The Sound In Your Mind
TTITLE9=Permanently Lonely
TTITLE10=So Much To Do
TTITLE11=Lonely Little Mansion
EXTD=
EXTT0=
EXTT1=
EXTT2=
EXTT3=
EXTT4=
EXTT5=
EXTT6=
EXTT7=
EXTT8=
EXTT9=
EXTT10=
EXTT11=
PLAYORDER=
